<svg class="h-8 hidden sm:block" viewBox="0 0 390 88" fill="none" xmlns="http://www.w3.org/2000/svg"><path fill-rule="evenodd" clip-rule="evenodd" d="M33.1796 9.6844C15.562 14.6498 4.80494 33.7996 9.5632 52.7755L17.2067 50.6213L17.198 50.5869L22.6509 49.0501L22.6642 49.0464C23.1583 48.9106 23.6537 48.7833 24.1504 48.6642L39.5503 44.3239C43.084 42.9878 46.1307 40.4596 48.205 37.0898C50.31 33.6702 51.292 29.5772 50.9562 25.453C50.6202 21.3276 48.9875 17.4441 46.3319 14.4186C43.8091 11.5444 40.5155 9.61628 36.9469 8.86307C35.6905 9.05829 34.433 9.33112 33.1796 9.6844ZM26.0619 56.8758L12.5367 60.6878C19.8042 74.7975 35.4807 82.2022 50.5695 77.9496C55.9374 76.4367 60.6684 73.6069 64.5177 69.8665C59.9762 64.5435 54.2265 60.5203 47.8088 58.1809C40.7894 55.6223 33.2604 55.1822 26.0619 56.8758ZM69.9152 63.1206C64.6436 57.3057 58.0992 52.8589 50.7955 50.1966C49.8599 49.8556 48.9164 49.5455 47.9662 49.2664C50.8745 47.2207 53.3688 44.5686 55.282 41.4606C58.3811 36.4261 59.7807 30.4834 59.2993 24.5728C58.9044 19.7238 57.2606 15.0968 54.5621 11.1755C63.8262 15.2194 71.3173 23.5969 74.1509 34.7201C76.7332 44.8571 74.8814 55.0537 69.9152 63.1206ZM1.48922 55.1993C-4.41811 32.0097 8.63023 7.85318 31.0998 1.52028C53.5694 -4.81262 76.3525 9.24508 82.2598 32.4347C88.1672 55.6243 75.1188 79.7808 52.6492 86.1137C30.1796 92.4466 7.39655 78.3889 1.48922 55.1993Z" fill="#f2545b"></path> <path d="M242.666 25.1819V29.2215C246.063 25.3764 249.996 24.1379 254.508 24.3389C259.02 24.5399 262.738 26.2842 265.45 30.3821C267.826 27.2322 271.25 25.1468 275.03 24.5464C285.947 22.8087 293.881 29.3123 294.053 40.5493C294.214 50.3922 294.09 60.2352 294.09 70.0976C294.09 70.4736 294.041 70.8497 294.01 71.3296H284.443V69.514C284.443 61.0262 284.443 52.532 284.443 44.0507C284.442 42.584 284.296 41.1214 284.005 39.6869C283.717 38.0915 282.923 36.6461 281.753 35.5863C280.583 34.5265 279.106 33.9149 277.563 33.8512C273.334 33.6696 270.443 35.4592 269.42 39.1293C269.009 40.6455 268.802 42.2147 268.803 43.7914C268.748 52.9275 268.803 62.0637 268.803 71.3296H259.131V69.5788C259.131 60.929 259.131 52.2726 259.131 43.6422C259.136 42.2847 258.979 40.9319 258.663 39.6156C257.627 35.4787 254.736 33.5529 250.267 33.8771C248.596 33.999 247.018 34.7324 245.808 35.9499C244.597 37.1675 243.83 38.7925 243.64 40.5428C243.451 41.8868 243.354 43.2433 243.35 44.6019C243.35 52.9275 243.35 61.2532 243.35 69.5788V71.3685H233.801C233.801 70.7849 233.721 70.2143 233.715 69.6437C233.715 55.4434 233.715 41.2431 233.715 27.0363C233.715 25.4866 234.19 25.0911 235.564 25.1559C237.87 25.2597 240.2 25.1819 242.666 25.1819Z" fill="#f2545b"></path> <path d="M230.52 48.3951C230.52 62.1286 220.749 72.3865 207.575 72.3865C193.915 72.3865 184.052 62.3101 184.027 48.2979C184.027 34.558 193.89 24.3065 207.168 24.2676C220.656 24.2482 230.495 34.4088 230.52 48.3951ZM220.817 48.3043C220.817 39.875 215.065 33.6178 207.31 33.5594C199.555 33.501 193.662 39.9787 193.668 48.3692C193.674 56.7597 199.531 62.9391 207.452 62.9391C215.139 62.9391 220.823 56.6948 220.817 48.3043V48.3043Z" fill="#f2545b"></path> <path d="M180.842 48.3951C180.842 62.1286 171.071 72.3865 157.898 72.3865C144.243 72.3865 134.374 62.3101 134.349 48.2979C134.349 34.558 144.212 24.3065 157.497 24.2676C170.979 24.2482 180.842 34.4088 180.842 48.3951ZM171.139 48.3043C171.139 39.875 165.388 33.6178 157.633 33.5594C149.878 33.501 143.991 39.9787 143.991 48.3692C143.991 56.7597 149.878 62.9391 157.805 62.9391C165.486 62.9391 171.17 56.6948 171.164 48.3043H171.139Z" fill="#f2545b"></path> <path d="M321.603 54.8859C324.068 59.736 327.65 62.4659 332.538 62.8355C339.504 63.3672 344.627 60.1964 347.722 53.4594L356.352 56.8052C355.002 60.5235 352.721 63.7881 349.75 66.2526C342.217 72.4774 333.858 74.2022 324.777 70.6618C316.597 67.4781 310.796 58.342 310.599 48.7195C310.402 39.097 315.58 30.3823 323.748 26.6734C331.762 23.0617 339.591 22.9255 347.05 28.1193C352.228 31.7375 355.064 37.0415 356.457 43.3247C356.734 44.6215 356.358 45.1143 355.137 45.4579C344.535 48.3888 333.956 51.3974 323.372 54.3736L321.603 54.8859ZM320.191 46.2166L345.015 39.2202C342.593 34.3376 336.49 32.1654 330.282 33.9097C324.34 35.5761 319.95 40.8866 320.185 46.2296L320.191 46.2166Z" fill="#f2545b"></path> <path d="M358.755 57.5053H368.064C368.193 58.05 368.304 58.5687 368.44 59.081C368.691 60.0593 369.141 60.9686 369.759 61.746C370.382 62.5217 371.159 63.144 372.036 63.5687C372.912 63.9934 373.867 64.2101 374.832 64.2035C375.796 64.1907 376.745 63.9561 377.613 63.5161C378.466 63.1673 379.203 62.5606 379.729 61.7726C380.256 60.9846 380.549 60.0503 380.572 59.0875C380.648 58.1498 380.434 57.2114 379.96 56.4129C379.487 55.6144 378.78 54.999 377.946 54.6588C376.036 53.8229 374.085 53.0956 372.102 52.4801C368.36 51.2806 364.704 49.8865 362.016 46.7092C357.701 41.5868 357.288 30.1422 366.695 25.9016C372.681 23.1977 378.691 23.4247 384.166 27.4319C387.655 30.0255 389.048 33.916 389.436 38.3706H380.097C379.986 38.001 379.85 37.599 379.746 37.1905C379.545 36.2421 379.133 35.3574 378.543 34.6091C377.954 33.8608 377.204 33.2702 376.356 32.886C375.507 32.5018 374.584 32.3349 373.663 32.399C372.741 32.463 371.847 32.7563 371.054 33.2546C370.323 33.6232 369.705 34.1992 369.27 34.9176C368.834 35.6359 368.598 36.4681 368.588 37.3202C368.521 38.1511 368.709 38.9828 369.125 39.6927C369.541 40.4025 370.163 40.9528 370.9 41.2625C373.809 42.5205 376.824 43.5385 379.77 44.6927C383.827 46.2813 387.353 48.635 389.017 53.0767C391.742 60.3713 388.857 69.5788 379.678 71.7445C373.039 73.3137 366.837 72.5551 361.992 66.9009C359.766 64.2942 358.873 61.0976 358.755 57.5053Z" fill="#f2545b"></path> <path d="M111.127 71.3038V59.4313C111.127 48.5963 111.127 37.7742 111.127 26.9651C111.127 25.5062 111.509 25.0912 112.872 25.1496C115.245 25.2663 117.631 25.182 120.17 25.182V30.914C123.869 26.3751 128.542 24.6698 134.096 24.7087V34.584C132.98 34.6683 131.889 34.6748 130.829 34.8434C125.102 35.7512 121.631 39.3823 121.157 45.6071C120.756 50.7425 120.867 55.9104 120.793 61.0718C120.75 64.4435 120.793 67.8088 120.793 71.3038H111.127Z" fill="#f2545b"></path> <path d="M297.825 31.3872H307.38V71.3036H297.825V31.3872Z" fill="#f2545b"></path> <path d="M302.571 27.5829C306.377 27.5829 309.463 24.3372 309.463 20.3335C309.463 16.3297 306.377 13.084 302.571 13.084C298.764 13.084 295.679 16.3297 295.679 20.3335C295.679 24.3372 298.764 27.5829 302.571 27.5829Z" fill="#f2545b"></path></svg>